<?xml version="1.0" standalone="no"?>
<!DOCTYPE svg PUBLIC "-//W3C//DTD SVG 1.1//EN" "http://www.w3.org/Graphics/SVG/1.1/DTD/svg11.dtd" >
<svg>
<metadata>
Created by FontForge 20110222 at Thu May 15 17:31:18 2014
 By Orthosie Webhosting
Modern and elegant sans serif free font.
</metadata>
<defs>
<font id="Code-Light" horiz-adv-x="588" >
  <font-face 
    font-family="Code Light"
    font-weight="300"
    font-stretch="normal"
    units-per-em="1000"
    panose-1="2 0 5 6 3 0 0 2 0 4"
    ascent="700"
    descent="-300"
    x-height="699"
    cap-height="699"
    bbox="-9 -202 881 838"
    underline-thickness="0"
    underline-position="0"
    stemh="50"
    stemv="53"
    unicode-range="U+0020-FB02"
  />
<missing-glyph horiz-adv-x="483" 
d="M13 0v663h456v-663h-456zM450 632l-200 -299l200 -300v599zM437 18l-196 297l-195 -297h391zM241 351l196 294h-391zM232 333l-200 299v-599z" />
    <glyph glyph-name="f_i" unicode="fi" horiz-adv-x="671" 
d="M62 342v-342h-15v699h377v-15h-362v-326h320v-16h-320zM340 0v14h149v685h164v-14h-149v-671h149v-14h-313z" />
    <glyph glyph-name="f_l" unicode="fl" horiz-adv-x="894" 
d="M62 342v-342h-15v699h377v-15h-362v-326h320v-16h-320zM505 699v-683h376v-16h-392v699h16z" />
    <glyph glyph-name=".notdef" horiz-adv-x="483" 
d="M13 0v663h456v-663h-456zM450 632l-200 -299l200 -300v599zM437 18l-196 297l-195 -297h391zM241 351l196 294h-391zM232 333l-200 299v-599z" />
    <glyph glyph-name="space" unicode=" " horiz-adv-x="352" 
 />
    <glyph glyph-name="exclam" unicode="!" horiz-adv-x="102" 
d="M44 697h16v-608h-16v608zM52 26c9 0 16 -7 16 -16c0 -8 -7 -15 -16 -15s-16 7 -16 15c0 9 7 16 16 16z" />
    <glyph glyph-name="quotedbl" unicode="&#x22;" horiz-adv-x="169" 
d="M44 701h16v-198h-16v198zM107 701h16v-198h-16v198z" />
    <glyph glyph-name="dollar" unicode="$" horiz-adv-x="529" 
d="M256 708v59h14v-59c100 -1 198 -52 217 -152l1 -8l-15 -3l-1 8c-6 29 -18 54 -38 76c-41 43 -104 63 -164 64v-334c104 -11 209 -21 233 -130c31 -145 -103 -232 -233 -236v-65h-14v65c-101 3 -220 60 -232 171l-1 7l16 2l1 -7c10 -103 122 -156 216 -158v337
c-109 11 -217 26 -226 160c-4 42 7 83 33 117c42 55 117 84 193 86zM488 226c-21 97 -119 107 -218 117v-335c120 3 246 81 218 218zM76 613c-25 -31 -34 -68 -31 -107c9 -120 107 -135 211 -146v333c-66 -2 -139 -26 -180 -80z" />
    <glyph glyph-name="ampersand" unicode="&#x26;" horiz-adv-x="572" 
d="M250 368h324v-15h-80v-199c-13 -85 -80 -158 -224 -161c-172 -3 -253 100 -243 205c7 64 42 135 140 160l32 3v2l-32 4c-83 27 -105 95 -105 164c0 219 363 242 410 51l-15 -3c-42 173 -379 153 -380 -47c0 -82 42 -164 173 -164zM250 353c-144 5 -201 -79 -207 -158
c-7 -92 64 -187 227 -187c134 0 197 70 209 148v197h-229z" />
    <glyph glyph-name="comma" unicode="," horiz-adv-x="105" 
d="M10 -95h-16l48 121h27z" />
    <glyph glyph-name="period" unicode="." horiz-adv-x="110" 
d="M58 35c12 0 20 -8 20 -20c0 -9 -8 -18 -20 -18c-10 0 -18 9 -18 18c0 12 8 20 18 20z" />
    <glyph glyph-name="zero" unicode="0" horiz-adv-x="552" 
d="M276 689c-323 0 -323 -675 0 -675s323 675 0 675zM276 -2c-343 0 -343 707 0 707s343 -707 0 -707z" />
    <glyph glyph-name="one" unicode="1" horiz-adv-x="237" 
d="M159 659l-149 -206l-11 8l171 239h16v-700h-15v654l3 28h-1z" />
    <glyph glyph-name="two" unicode="2" horiz-adv-x="509" 
d="M36 477h-14c0 113 78 225 233 225c152 0 237 -97 234 -206c-1 -75 -42 -141 -97 -187l-348 -293h439v-15h-461v15l358 304c50 43 91 103 93 173c3 101 -75 194 -218 194c-146 0 -219 -105 -219 -210z" />
    <glyph glyph-name="three" unicode="3" horiz-adv-x="506" 
d="M243 8c-134 0 -197 70 -209 148l-15 -2c13 -85 80 -161 224 -161c171 0 253 106 243 205c-7 70 -62 136 -160 161l-32 2v2l32 4c83 27 125 95 125 164c0 219 -363 242 -410 51l15 -3c42 173 379 153 380 -47c0 -82 -62 -164 -193 -164h-49v-15c11 0 101 0 49 0
c303 0 303 -345 0 -345z" />
    <glyph glyph-name="four" unicode="4" horiz-adv-x="504" 
d="M10 196l398 506h16v-506h65v-15h-65v-181h-15v181h-399v15zM29 196h380v460l3 28h-1l-14 -23z" />
    <glyph glyph-name="five" unicode="5" horiz-adv-x="508" 
d="M441 699v-15h-391v-278c88 42 202 64 301 23c90 -37 135 -118 136 -202c1 -113 -80 -227 -242 -227c-124 0 -197 66 -226 148l14 5c27 -77 95 -137 212 -137c152 0 227 105 226 211c0 76 -41 152 -122 187c-98 42 -203 18 -296 -23l-18 9v284v15h15h391z" />
    <glyph glyph-name="six" unicode="6" horiz-adv-x="517" 
d="M258 434c-302 0 -302 -418 0 -418s302 418 0 418zM56 355l245 346h19l-182 -257l-39 -46l1 -1l36 25c34 18 72 28 122 28c322 0 322 -450 0 -450c-227 0 -294 222 -202 355z" />
    <glyph glyph-name="seven" unicode="7" horiz-adv-x="494" 
d="M11 699h469v-16l-374 -683h-19l374 684h-450v15z" />
    <glyph glyph-name="eight" unicode="8" horiz-adv-x="518" 
d="M259 7c302 0 302 353 0 353s-302 -353 0 -353zM259 700c-93 0 -193 -50 -193 -162c0 -81 63 -163 193 -163s192 82 192 164c0 112 -101 161 -192 161zM342 374l-32 -4l-1 -2l33 -2c236 -60 209 -374 -83 -374c-291 0 -319 313 -85 373l43 3v2l-42 4
c-83 28 -124 97 -124 165c1 120 108 176 208 176c138 0 208 -88 208 -177c0 -68 -42 -137 -125 -164z" />
    <glyph glyph-name="nine" unicode="9" horiz-adv-x="520" 
d="M263 267c303 0 303 419 0 419c-302 0 -302 -419 0 -419zM465 347l-245 -347h-18l181 257l39 47h-1l-36 -25c-34 -18 -72 -28 -122 -28c-322 0 -322 450 0 451c227 0 294 -223 202 -355z" />
    <glyph glyph-name="colon" unicode=":" horiz-adv-x="120" 
d="M58 35c12 0 20 -8 20 -20c0 -9 -8 -18 -20 -18c-10 0 -18 9 -18 18c0 12 8 20 18 20zM58 362c12 0 20 -8 20 -20c0 -9 -8 -18 -20 -18c-10 0 -18 9 -18 18c0 12 8 20 18 20z" />
    <glyph glyph-name="semicolon" unicode=";" horiz-adv-x="120" 
d="M58 362c12 0 20 -8 20 -20c0 -9 -8 -18 -20 -18c-10 0 -18 9 -18 18c0 12 8 20 18 20zM1 -95h16l59 121h-28z" />
    <glyph glyph-name="question" unicode="?" horiz-adv-x="481" 
d="M229 203l1 -114h-16v115c0 71 54 97 110 126c56 30 112 65 115 160c3 101 -75 194 -218 194c-100 0 -166 -50 -197 -115c-5 2 -9 5 -13 7c33 70 103 123 210 123c152 0 236 -99 234 -208c-2 -107 -69 -145 -129 -177c-51 -27 -98 -49 -97 -111zM222 26c8 0 15 -7 15 -16
c0 -8 -7 -15 -15 -15c-9 0 -16 7 -16 15c0 9 7 16 16 16z" />
    <glyph glyph-name="A" unicode="A" 
d="M293 689l-170 -439h341zM566 0l-96 235h-354l-95 -235h-17l281 710h17l281 -710h-17z" />
    <glyph glyph-name="B" unicode="B" horiz-adv-x="562" 
d="M63 683v-301h267c69 0 113 39 133 89c15 39 15 84 0 123c-20 50 -64 89 -133 89h-267zM330 699c76 0 125 -43 147 -99c16 -42 16 -92 0 -135c-15 -38 -42 -70 -82 -87c205 -36 193 -378 -37 -378h-311v699h283zM63 366v-351h295c223 0 223 351 0 351h-295z" />
    <glyph glyph-name="C" unicode="C" horiz-adv-x="710" 
d="M683 486h-17c-16 37 -39 70 -66 98c-59 61 -141 98 -231 98s-172 -37 -231 -98s-96 -144 -96 -235c0 -92 37 -175 96 -235c59 -61 141 -99 231 -99s172 38 231 99c27 28 50 60 66 97h17c-17 -41 -42 -78 -72 -109c-62 -64 -147 -103 -242 -103s-180 39 -242 103
c-61 63 -100 150 -100 247c0 96 39 183 100 246c62 64 147 103 242 103s180 -39 242 -103c30 -31 55 -68 72 -109z" />
    <glyph glyph-name="D" unicode="D" horiz-adv-x="651" 
d="M61 15h221c439 0 439 669 0 669h-221v-669zM46 699h236c459 0 459 -699 0 -699h-236v699z" />
    <glyph glyph-name="E" unicode="E" horiz-adv-x="461" 
d="M63 342v-327h372v-15h-386h-2v699h386v-15h-370v-326h362v-16h-362z" />
    <glyph glyph-name="F" unicode="F" horiz-adv-x="441" 
d="M62 342v-342h-15v699h377v-15h-362v-326h320v-16h-320z" />
    <glyph glyph-name="G" unicode="G" horiz-adv-x="725" 
d="M684 490h-17c-48 125 -168 200 -297 200c-91 0 -172 -39 -232 -101c-58 -62 -95 -146 -95 -240s37 -179 95 -240c60 -63 141 -101 232 -101c140 0 289 111 315 259h-309v16h329c-2 -24 -8 -47 -17 -70c-46 -128 -193 -222 -318 -222c-95 0 -181 41 -243 106
c-61 64 -100 153 -100 252c0 98 39 187 100 252c62 65 148 105 243 105c138 0 268 -83 314 -216z" />
    <glyph glyph-name="H" unicode="H" horiz-adv-x="563" 
d="M62 699v-337h439v337h16v-699h-16v347h-439v-347h-15v699h15z" />
    <glyph glyph-name="I" unicode="I" horiz-adv-x="341" 
d="M327 699v-14h-149v-670h149v-15h-313v15h149v670h-149v14h313z" />
    <glyph glyph-name="J" unicode="J" horiz-adv-x="395" 
d="M351 699v-403c0 -203 -151 -296 -341 -296v16c182 0 326 86 326 280v389h-216v14h231z" />
    <glyph glyph-name="K" unicode="K" horiz-adv-x="477" 
d="M47 699h15v-699h-15v699zM85 342v16l348 341h20l-354 -348l397 -351h-23z" />
    <glyph glyph-name="L" unicode="L" horiz-adv-x="455" 
d="M63 699v-683h376v-16h-392v699h16z" />
    <glyph glyph-name="M" unicode="M" horiz-adv-x="707" 
d="M62 677v-677h-15v700h16l290 -429l291 429h16v-700h-15v677l-285 -424h-13z" />
    <glyph glyph-name="N" unicode="N" 
d="M63 0h-16v701l14 -1l465 -672v672h15v-700h-16l-462 668v-668z" />
    <glyph glyph-name="O" unicode="O" horiz-adv-x="758" 
d="M719 350c0 95 -38 180 -99 242c-62 63 -148 102 -242 102s-179 -39 -241 -102c-61 -62 -100 -147 -100 -242s39 -180 100 -242c62 -63 147 -102 241 -102s180 39 242 102c61 62 99 147 99 242zM21 350c0 99 41 189 105 254c64 66 154 106 252 106c99 0 188 -40 253 -106
c64 -65 105 -155 105 -254s-41 -189 -105 -254c-65 -66 -154 -106 -253 -106c-98 0 -188 40 -252 106c-64 65 -105 155 -105 254z" />
    <glyph glyph-name="Q" unicode="Q" horiz-adv-x="766" 
d="M724 350c0 95 -39 180 -100 242c-62 63 -147 102 -242 102c-94 0 -179 -39 -241 -102c-61 -62 -100 -147 -100 -242s39 -180 100 -242c62 -63 147 -102 241 -102c88 0 168 34 228 89l-211 187h24l199 -176l2 2c61 62 100 147 100 242zM635 96l108 -96h-26l-95 84
c-63 -59 -147 -94 -240 -94c-98 0 -188 40 -252 106c-64 65 -105 155 -105 254s41 189 105 254c64 66 154 106 252 106c99 0 188 -40 253 -106c64 -65 105 -155 105 -254s-41 -189 -105 -254z" />
    <glyph glyph-name="R" unicode="R" horiz-adv-x="527" 
d="M62 684v-684h-15v692v8h8h234c280 0 280 -409 0 -409h-113l322 -291h-23l-322 291v15h136c260 0 260 378 0 378h-227z" />
    <glyph glyph-name="S" unicode="S" horiz-adv-x="549" 
d="M485 545l-1 8c-6 29 -18 54 -38 76c-43 46 -112 65 -175 64c-66 -1 -141 -25 -183 -80c-25 -31 -34 -68 -31 -107c18 -245 411 -53 459 -277c32 -148 -109 -236 -242 -236c-102 0 -226 58 -238 171l-1 7l16 2l1 -7c11 -105 128 -158 223 -158c122 0 254 79 225 218
c-45 208 -440 18 -458 279c-4 42 7 83 33 117c102 132 390 115 424 -66l1 -8z" />
    <glyph glyph-name="T" unicode="T" horiz-adv-x="521" 
d="M266 -3h-15v687h-242v16h499v-16h-242v-687z" />
    <glyph glyph-name="U" unicode="U" horiz-adv-x="589" 
d="M295 -8c-116 0 -245 68 -245 198v509h16v-510c0 -121 122 -181 229 -181s229 60 229 182v509h16v-510c0 -129 -130 -197 -245 -197z" />
    <glyph glyph-name="V" unicode="V" horiz-adv-x="590" 
d="M295 9l273 690h17l-281 -710h-17l-281 710h17z" />
    <glyph glyph-name="W" unicode="W" horiz-adv-x="851" 
d="M597 -7l-173 489l-172 -489h-14l-234 706h16l225 -680l168 476h22l168 -476l226 680h16l-234 -706h-14z" />
    <glyph glyph-name="X" unicode="X" horiz-adv-x="542" 
d="M10 699h19l243 -336l244 336h18l-253 -350l253 -349h-18l-244 336l-243 -336h-19l253 349z" />
    <glyph glyph-name="Y" unicode="Y" horiz-adv-x="539" 
d="M4 699h19l246 -394l246 394h19l-257 -410v-289h-16v289z" />
    <glyph glyph-name="Z" unicode="Z" horiz-adv-x="553" 
d="M32 683v16h494l11 -18l-507 -666h509v-15h-520l-9 14l508 669h-486z" />
    <glyph glyph-name="exclamdown" unicode="&#xa1;" horiz-adv-x="108" 
d="M44 -5h16v608h-16v-608zM52 666c-9 0 -16 7 -16 16c0 8 7 15 16 15s16 -7 16 -15c0 -9 -7 -16 -16 -16z" />
    <glyph glyph-name="fraction" unicode="&#x2044;" horiz-adv-x="326" 
 />
    <glyph glyph-name="quotesingle" unicode="'" horiz-adv-x="117" 
d="M50 701h16v-198h-16v198z" />
    <glyph glyph-name="periodcentered" unicode="&#xb7;" horiz-adv-x="165" 
d="M80 349c12 0 20 -8 20 -20c0 -9 -8 -18 -20 -18c-10 0 -18 9 -18 18c0 12 8 20 18 20z" />
    <glyph glyph-name="ellipsis" unicode="&#x2026;" horiz-adv-x="390" 
d="M66 36c12 0 20 -8 20 -20c0 -9 -8 -18 -20 -18c-10 0 -18 9 -18 18c0 12 8 20 18 20zM183 36c12 0 20 -8 20 -20c0 -9 -8 -18 -20 -18c-10 0 -18 9 -18 18c0 12 8 20 18 20zM298 36c12 0 20 -8 20 -20c0 -9 -8 -18 -20 -18c-10 0 -18 9 -18 18c0 12 8 20 18 20z" />
    <glyph glyph-name="questiondown" unicode="&#xbf;" horiz-adv-x="486" 
d="M253 605l1 -114c1 -62 -46 -84 -97 -111c-60 -32 -127 -70 -129 -177c-2 -109 82 -208 234 -208c107 0 177 53 210 123c-4 2 -8 5 -13 7c-31 -65 -97 -115 -197 -115c-143 0 -221 93 -218 194c3 95 59 130 115 160c56 29 110 55 110 126v115h-16zM261 668
c-8 0 -15 7 -15 16c0 8 7 15 15 15c9 0 16 -7 16 -15c0 -9 -7 -16 -16 -16z" />
    <glyph glyph-name="grave" unicode="`" horiz-adv-x="246" 
d="M159 726h-19l-66 75h27z" />
    <glyph glyph-name="acute" unicode="&#xb4;" horiz-adv-x="246" 
d="M98 722h-19l58 75h27z" />
    <glyph glyph-name="circumflex" unicode="&#x2c6;" horiz-adv-x="312" 
d="M104 721h-16l58 72h27l58 -72h-16l-55 60z" />
    <glyph glyph-name="tilde" unicode="&#x2dc;" horiz-adv-x="348" 
d="M97 728l-12 3c4 18 14 33 30 39c24 10 50 -2 67 -20c11 -12 28 -16 43 -11c12 5 22 15 25 29l11 -3c-4 -18 -15 -33 -32 -39c-19 -8 -42 -2 -57 14s-37 24 -54 17c-10 -4 -18 -14 -21 -29z" />
    <glyph glyph-name="dieresis" unicode="&#xa8;" horiz-adv-x="307" 
d="M93 784c12 0 20 -8 20 -20c0 -9 -8 -18 -20 -18c-10 0 -18 9 -18 18c0 12 8 20 18 20zM214 784c12 0 20 -8 20 -20c0 -9 -8 -18 -20 -18c-10 0 -18 9 -18 18c0 12 8 20 18 20z" />
    <glyph glyph-name="ring" unicode="&#x2da;" horiz-adv-x="279" 
d="M89 787c0 28 22 51 50 51s51 -23 51 -51c0 -29 -23 -51 -52 -51c-27 0 -49 23 -49 51zM107 787c0 -18 14 -33 32 -33s33 15 33 33s-15 33 -33 33s-32 -15 -32 -33z" />
    <glyph glyph-name="minus" unicode="&#x2212;" horiz-adv-x="494" 
 />
    <glyph glyph-name="uni00A0" unicode="&#xa0;" horiz-adv-x="200" 
 />
    <glyph glyph-name="uni03A9" unicode="&#x3a9;" horiz-adv-x="704" 
 />
    <glyph glyph-name="pi" unicode="&#x3c0;" horiz-adv-x="643" 
 />
    <glyph glyph-name="Euro" unicode="&#x20ac;" horiz-adv-x="705" 
d="M-9 315v16h46v18v21h-46v16h48c8 81 45 154 98 209c62 64 147 103 242 103s180 -39 242 -103c30 -31 55 -68 72 -109h-17c-16 37 -39 70 -66 98c-59 61 -141 98 -231 98s-172 -37 -231 -98c-51 -53 -86 -122 -94 -198h182v-16h-184v-21v-18h184v-16h-183
c8 -79 43 -149 95 -201c59 -61 141 -99 231 -99s172 38 231 99c27 28 50 60 66 97h17c-17 -41 -42 -78 -72 -109c-62 -64 -147 -103 -242 -103s-180 39 -242 103c-54 55 -91 129 -99 213h-47z" />
    <glyph glyph-name="litre" unicode="&#x2113;" horiz-adv-x="489" 
 />
    <glyph glyph-name="Omega" unicode="&#x2126;" horiz-adv-x="704" 
 />
    <glyph glyph-name="estimated" unicode="&#x212e;" horiz-adv-x="657" 
d="M621 295h-456v-203c44 -43 98 -66 162 -66c104 0 169 52 219 134c12 -7 24 -15 36 -22c-61 -91 -130 -150 -255 -150c-176 0 -288 138 -288 308s109 307 289 307c183 0 288 -137 293 -308zM491 333v166c-43 41 -101 67 -163 67c-64 0 -119 -22 -163 -66v-167h326z" />
    <glyph glyph-name="partialdiff" unicode="&#x2202;" horiz-adv-x="570" 
 />
    <glyph glyph-name="Delta" unicode="&#x2206;" horiz-adv-x="601" 
 />
    <glyph glyph-name="product" unicode="&#x220f;" horiz-adv-x="711" 
 />
    <glyph glyph-name="summation" unicode="&#x2211;" horiz-adv-x="624" 
 />
    <glyph glyph-name="uni2215" unicode="&#x2215;" horiz-adv-x="326" 
 />
    <glyph glyph-name="uni2219" unicode="&#x2219;" horiz-adv-x="165" 
 />
    <glyph glyph-name="radical" unicode="&#x221a;" horiz-adv-x="505" 
 />
    <glyph glyph-name="infinity" unicode="&#x221e;" horiz-adv-x="774" 
 />
    <glyph glyph-name="integral" unicode="&#x222b;" horiz-adv-x="486" 
 />
    <glyph glyph-name="approxequal" unicode="&#x2248;" horiz-adv-x="494" 
 />
    <glyph glyph-name="notequal" unicode="&#x2260;" horiz-adv-x="494" 
 />
    <glyph glyph-name="lessequal" unicode="&#x2264;" horiz-adv-x="494" 
 />
    <glyph glyph-name="greaterequal" unicode="&#x2265;" horiz-adv-x="494" 
 />
    <glyph glyph-name="lozenge" unicode="&#x25ca;" horiz-adv-x="553" 
d="M495 350c-68 -117 -136 -233 -204 -350h-32c-68 116 -136 233 -204 349l204 351h32c68 -117 136 -233 204 -350zM476 350c-66 114 -135 230 -201 343c-67 -113 -134 -229 -202 -343c68 -115 135 -230 201 -343c67 113 135 228 202 343z" />
    <glyph glyph-name="E.alt" unicode="&#xe000;" horiz-adv-x="440" 
d="M63 212v-197h372v-15h-386h-2v699h386v-15h-370v-456h362v-16h-362z" />
    <glyph glyph-name="Eacute.alt" unicode="&#xe001;" horiz-adv-x="440" 
d="M63 212v-197h372v-15h-386h-2v699h386v-15h-370v-456h362v-16h-362zM242 735h-19l58 75h27z" />
    <glyph glyph-name="Egrave.alt" unicode="&#xe002;" horiz-adv-x="440" 
d="M63 15v197h362v16h-362v456h370v15h-386v-699h2h386v15h-372zM268 737h-19l-66 75h27z" />
    <glyph glyph-name="Ecircumflex.alt" unicode="&#xe003;" horiz-adv-x="440" 
d="M63 212v-197h372v-15h-386h-2v699h386v-15h-370v-456h362v-16h-362zM198 733h-16l58 72h27l58 -72h-16l-55 60z" />
    <glyph glyph-name="Edieresis.alt" unicode="&#xe004;" horiz-adv-x="440" 
d="M63 15v197h362v16h-362v456h370v15h-386v-699h2h386v15h-372zM192 783c12 0 20 -8 20 -20c0 -9 -8 -18 -20 -18c-10 0 -18 9 -18 18c0 12 8 20 18 20zM313 783c12 0 20 -8 20 -20c0 -9 -8 -18 -20 -18c-10 0 -18 9 -18 18c0 12 8 20 18 20z" />
    <glyph glyph-name="F.alt" unicode="&#xe005;" horiz-adv-x="424" 
d="M62 212v-212h-15v699h377v-15h-362v-456h320v-16h-320z" />
    <glyph glyph-name="H.alt" unicode="&#xe006;" horiz-adv-x="563" 
d="M62 699v-472h439v472h16v-699h-16v212h-439v-212h-15v699h15z" />
    <glyph glyph-name="N.alt" unicode="&#xe007;" 
d="M526 392v308h15v-700h-15v373l-463 308v-681h-16v701l14 -1z" />
    <glyph glyph-name="Ntilde.alt" unicode="&#xe008;" 
d="M526 392v308h15v-700h-15v373l-463 308v-681h-16v701l14 -1zM222 742l-12 3c4 18 14 33 30 39c24 10 50 -2 67 -20c11 -12 28 -16 43 -11c12 5 22 15 25 29l11 -3c-4 -18 -15 -33 -32 -39c-19 -8 -42 -2 -57 14s-37 24 -54 17c-10 -4 -18 -14 -21 -29z" />
    <glyph glyph-name="U.alt" unicode="&#xe009;" horiz-adv-x="581" 
d="M46 53v646h16v-642c0 -41 114 -63 228 -63c115 0 230 21 230 63v642h16v-647c0 -96 -490 -99 -490 1z" />
    <glyph glyph-name="Uacute.alt" unicode="&#xe00a;" horiz-adv-x="581" 
d="M46 53v646h16v-642c0 -41 114 -63 228 -63c115 0 230 21 230 63v642h16v-647c0 -96 -490 -99 -490 1zM284 735h-19l58 75h27z" />
    <glyph glyph-name="Ugrave.alt" unicode="&#xe00b;" horiz-adv-x="584" 
d="M47 699v-646c0 -100 490 -97 490 -1v647h-16v-642c0 -42 -115 -63 -230 -63c-114 0 -228 22 -228 63v642h-16zM322 735h-19l-66 75h27z" />
    <glyph glyph-name="Ucircumflex.alt" unicode="&#xe00c;" horiz-adv-x="583" 
d="M47 53v646h16v-642c0 -41 114 -63 228 -63c115 0 230 21 230 63v642h16v-647c0 -96 -490 -99 -490 1zM243 733h-16l58 72h27l58 -72h-16l-55 60z" />
    <glyph glyph-name="Udieresis.alt" unicode="&#xe00d;" horiz-adv-x="582" 
d="M47 699v-646c0 -100 490 -97 490 -1v647h-16v-642c0 -42 -115 -63 -230 -63c-114 0 -228 22 -228 63v642h-16zM242 784c12 0 20 -8 20 -20c0 -9 -8 -18 -20 -18c-10 0 -18 9 -18 18c0 12 8 20 18 20zM363 784c12 0 20 -8 20 -20c0 -9 -8 -18 -20 -18c-10 0 -18 9 -18 18
c0 12 8 20 18 20z" />
    <glyph glyph-name="Y.alt" unicode="&#xe00e;" horiz-adv-x="540" 
d="M4 699h19l252 -502l240 502h19l-339 -699h-16l87 181z" />
    <glyph glyph-name="Ydieresis.alt" unicode="&#xe00f;" horiz-adv-x="540" 
d="M23 699h-19l262 -518l-87 -181h16l339 699h-19l-240 -502zM214 784c12 0 20 -8 20 -20c0 -9 -8 -18 -20 -18c-10 0 -18 9 -18 18c0 12 8 20 18 20zM335 784c12 0 20 -8 20 -20c0 -9 -8 -18 -20 -18c-10 0 -18 9 -18 18c0 12 8 20 18 20z" />
    <glyph glyph-name="seven.alt" unicode="&#xe010;" horiz-adv-x="372" 
 />
    <glyph glyph-name="nine.alt" unicode="&#xe011;" horiz-adv-x="423" 
 />
    <glyph glyph-name="a" unicode="a" 
d="M293 689l-170 -439h341zM566 0l-96 235h-354l-95 -235h-17l281 710h17l281 -710h-17z" />
    <glyph glyph-name="b" unicode="b" horiz-adv-x="562" 
d="M63 683v-301h267c69 0 113 39 133 89c15 39 15 84 0 123c-20 50 -64 89 -133 89h-267zM330 699c76 0 125 -43 147 -99c16 -42 16 -92 0 -135c-15 -38 -42 -70 -82 -87c205 -36 193 -378 -37 -378h-311v699h283zM63 366v-351h295c223 0 223 351 0 351h-295z" />
    <glyph glyph-name="c" unicode="c" horiz-adv-x="712" 
d="M683 486h-17c-16 37 -39 70 -66 98c-59 61 -141 98 -231 98s-172 -37 -231 -98s-96 -144 -96 -235c0 -92 37 -175 96 -235c59 -61 141 -99 231 -99s172 38 231 99c27 28 50 60 66 97h17c-17 -41 -42 -78 -72 -109c-62 -64 -147 -103 -242 -103s-180 39 -242 103
c-61 63 -100 150 -100 247c0 96 39 183 100 246c62 64 147 103 242 103s180 -39 242 -103c30 -31 55 -68 72 -109z" />
    <glyph glyph-name="d" unicode="d" horiz-adv-x="651" 
d="M61 15h221c439 0 439 669 0 669h-221v-669zM46 699h236c459 0 459 -699 0 -699h-236v699z" />
    <glyph glyph-name="e" unicode="e" horiz-adv-x="461" 
d="M63 342v-327h372v-15h-386h-2v699h386v-15h-370v-326h362v-16h-362z" />
    <glyph glyph-name="f" unicode="f" horiz-adv-x="441" 
d="M62 342v-342h-15v699h377v-15h-362v-326h320v-16h-320z" />
    <glyph glyph-name="g" unicode="g" horiz-adv-x="721" 
d="M684 490h-17c-48 125 -168 200 -297 200c-91 0 -172 -39 -232 -101c-58 -62 -95 -146 -95 -240s37 -179 95 -240c60 -63 141 -101 232 -101c140 0 289 111 315 259h-309v16h329c-2 -24 -8 -47 -17 -70c-46 -128 -193 -222 -318 -222c-95 0 -181 41 -243 106
c-61 64 -100 153 -100 252c0 98 39 187 100 252c62 65 148 105 243 105c138 0 268 -83 314 -216z" />
    <glyph glyph-name="h" unicode="h" horiz-adv-x="563" 
d="M62 699v-337h439v337h16v-699h-16v347h-439v-347h-15v699h15z" />
    <glyph glyph-name="i" unicode="i" horiz-adv-x="360" 
d="M337 699v-14h-149v-670h149v-15h-313v15h149v670h-149v14h313z" />
    <glyph glyph-name="j" unicode="j" horiz-adv-x="394" 
d="M348 699v-403c0 -203 -151 -296 -341 -296v16c182 0 326 86 326 280v389h-216v14h231z" />
    <glyph glyph-name="k" unicode="k" horiz-adv-x="477" 
d="M47 699h15v-699h-15v699zM85 342v16l365 341h20l-371 -348l388 -351h-23z" />
    <glyph glyph-name="l" unicode="l" horiz-adv-x="455" 
d="M63 699v-683h376v-16h-392v699h16z" />
    <glyph glyph-name="m" unicode="m" horiz-adv-x="707" 
d="M62 677v-677h-15v700h16l290 -429l291 429h16v-700h-15v677l-285 -424h-13z" />
    <glyph glyph-name="n" unicode="n" 
d="M63 0h-16v701l14 -1l465 -672v672h15v-700h-16l-462 668v-668z" />
    <glyph glyph-name="o" unicode="o" horiz-adv-x="770" 
d="M727 350c0 95 -38 180 -99 242c-62 63 -148 102 -242 102s-179 -39 -241 -102c-61 -62 -100 -147 -100 -242s39 -180 100 -242c62 -63 147 -102 241 -102s180 39 242 102c61 62 99 147 99 242zM29 350c0 99 41 189 105 254c64 66 154 106 252 106c99 0 188 -40 253 -106
c64 -65 105 -155 105 -254s-41 -189 -105 -254c-65 -66 -154 -106 -253 -106c-98 0 -188 40 -252 106c-64 65 -105 155 -105 254z" />
    <glyph glyph-name="p" unicode="p" horiz-adv-x="525" 
d="M47 692v8h8h234c280 0 280 -434 0 -434h-226v-266h-16v692zM63 281h226c260 0 260 403 0 403h-226v-403z" />
    <glyph glyph-name="q" unicode="q" horiz-adv-x="766" 
d="M720 350c0 189 -154 344 -342 344s-341 -156 -341 -344s153 -344 341 -344c88 0 168 34 228 89l-211 187h24l199 -176l2 2c61 62 100 147 100 242zM631 96l108 -96h-26l-95 84c-63 -59 -147 -94 -240 -94c-197 0 -357 163 -357 360s160 360 357 360
c196 0 360 -160 360 -360c0 -99 -43 -189 -107 -254z" />
    <glyph glyph-name="r" unicode="r" horiz-adv-x="529" 
d="M62 684v-684h-15v692v8h8h234c280 0 280 -409 0 -409h-113l322 -291h-23l-322 291v15h136c260 0 260 378 0 378h-227z" />
    <glyph glyph-name="s" unicode="s" horiz-adv-x="544" 
d="M477 545l-1 8c-6 29 -18 54 -38 76c-43 46 -112 65 -175 64c-66 -1 -141 -25 -183 -80c-25 -31 -34 -68 -31 -107c18 -245 410 -53 458 -277c32 -148 -108 -236 -241 -236c-102 0 -226 58 -238 171l-1 7l16 2l1 -7c11 -105 128 -158 223 -158c122 0 254 79 225 218
c-45 208 -440 18 -458 279c-4 42 7 83 33 117c102 132 390 115 424 -66l1 -8z" />
    <glyph glyph-name="t" unicode="t" horiz-adv-x="521" 
d="M266 0h-15v684h-242v16h499v-16h-242v-684z" />
    <glyph glyph-name="u" unicode="u" horiz-adv-x="582" 
d="M291 -8c-116 0 -245 68 -245 198v509h16v-510c0 -121 122 -181 229 -181s229 60 229 182v509h16v-510c0 -129 -130 -197 -245 -197z" />
    <glyph glyph-name="v" unicode="v" horiz-adv-x="590" 
d="M295 9l273 690h17l-281 -710h-17l-281 710h17z" />
    <glyph glyph-name="w" unicode="w" horiz-adv-x="851" 
d="M597 -7l-173 489l-172 -489h-14l-234 706h16l225 -680l168 476h22l168 -476l226 680h16l-234 -706h-14z" />
    <glyph glyph-name="x" unicode="x" horiz-adv-x="542" 
d="M10 699h19l243 -336l244 336h18l-253 -350l253 -349h-18l-244 336l-243 -336h-19l253 349z" />
    <glyph glyph-name="y" unicode="y" horiz-adv-x="539" 
d="M4 699h19l246 -394l246 394h19l-257 -410v-289h-16v289z" />
    <glyph glyph-name="z" unicode="z" horiz-adv-x="554" 
d="M32 683v16h494l10 -18l-506 -666h509v-15h-520l-9 14l508 669h-486z" />
    <glyph glyph-name="yacute" unicode="&#xfd;" horiz-adv-x="539" 
d="M4 699h19l246 -394l246 394h19l-257 -410v-289h-16v289zM268 735h-19l58 75h27z" />
    <glyph glyph-name="P" unicode="P" horiz-adv-x="521" 
d="M47 692v8h8h234c280 0 280 -434 0 -434h-226v-266h-16v692zM63 281h226c260 0 260 403 0 403h-226v-403z" />
    <glyph glyph-name="Agrave" unicode="&#xc0;" 
d="M293 689l-170 -439h341zM566 0l-96 235h-354l-95 -235h-17l281 710h17l281 -710h-17zM302 735h-19l-66 75h27z" />
    <glyph glyph-name="Ydieresis" unicode="&#x178;" horiz-adv-x="539" 
d="M23 699h-19l257 -410v-289h16v289l257 410h-19l-246 -394zM208 784c12 0 20 -8 20 -20c0 -9 -8 -18 -20 -18c-10 0 -18 9 -18 18c0 12 8 20 18 20zM329 784c12 0 20 -8 20 -20c0 -9 -8 -18 -20 -18c-10 0 -18 9 -18 18c0 12 8 20 18 20z" />
    <glyph glyph-name="Yacute" unicode="&#xdd;" horiz-adv-x="539" 
d="M4 699h19l246 -394l246 394h19l-257 -410v-289h-16v289zM269 725h-19l58 75h27z" />
    <glyph glyph-name="ydieresis" unicode="&#xff;" horiz-adv-x="539" 
d="M23 699h-19l257 -410v-289h16v289l257 410h-19l-246 -394zM210 784c12 0 20 -8 20 -20c0 -9 -8 -18 -20 -18c-10 0 -18 9 -18 18c0 12 8 20 18 20zM331 784c12 0 20 -8 20 -20c0 -9 -8 -18 -20 -18c-10 0 -18 9 -18 18c0 12 8 20 18 20z" />
    <glyph glyph-name="Aacute" unicode="&#xc1;" 
d="M293 689l-170 -439h341zM566 0l-96 235h-354l-95 -235h-17l281 710h17l281 -710h-17zM303 735h-19l58 75h27z" />
    <glyph glyph-name="Acircumflex" unicode="&#xc2;" 
d="M293 689l-170 -439h341zM566 0l-96 235h-354l-95 -235h-17l281 710h17l281 -710h-17zM238 733h-16l58 72h27l58 -72h-16l-55 60z" />
    <glyph glyph-name="Atilde" unicode="&#xc3;" 
d="M293 689l-170 -439h341zM566 0l-96 235h-354l-95 -235h-17l281 710h17l281 -710h-17zM220 737l-12 3c4 18 14 33 30 39c24 10 50 -2 67 -20c11 -12 28 -16 43 -11c12 5 22 15 25 29l11 -3c-4 -18 -15 -33 -32 -39c-19 -8 -42 -2 -57 14s-37 24 -54 17
c-10 -4 -18 -14 -21 -29z" />
    <glyph glyph-name="Adieresis" unicode="&#xc4;" 
d="M293 689l-170 -439h341zM566 0l-96 235h-354l-95 -235h-17l281 710h17l281 -710h-17zM232 785c12 0 20 -8 20 -20c0 -9 -8 -18 -20 -18c-10 0 -18 9 -18 18c0 12 8 20 18 20zM353 785c12 0 20 -8 20 -20c0 -9 -8 -18 -20 -18c-10 0 -18 9 -18 18c0 12 8 20 18 20z" />
    <glyph glyph-name="Aring" unicode="&#xc5;" 
d="M293 689l-170 -439h341zM566 0l-96 235h-354l-95 -235h-17l281 710h17l281 -710h-17zM242 750c0 28 22 51 50 51s51 -23 51 -51c0 -29 -23 -51 -52 -51c-27 0 -49 23 -49 51zM260 750c0 -18 14 -33 32 -33s33 15 33 33s-15 33 -33 33s-32 -15 -32 -33z" />
    <glyph glyph-name="AE" unicode="&#xc6;" horiz-adv-x="828" 
d="M447 285v-270h372v-15h-388v285h-249l-161 -285h-17l392 700h421v-15h-370v-385h362v-15h-362zM406 685l-216 -385h241v385h-25z" />
    <glyph glyph-name="ae" unicode="&#xe6;" horiz-adv-x="828" 
d="M447 285v-270h372v-15h-388v285h-249l-161 -285h-17l392 700h421v-15h-370v-385h362v-15h-362zM406 685l-216 -385h241v385h-25z" />
    <glyph glyph-name="agrave" unicode="&#xe0;" 
d="M293 689l-170 -439h341zM566 0l-96 235h-354l-95 -235h-17l281 710h17l281 -710h-17zM306 731h-19l-66 75h27z" />
    <glyph glyph-name="aacute" unicode="&#xe1;" 
d="M293 689l-170 -439h341zM566 0l-96 235h-354l-95 -235h-17l281 710h17l281 -710h-17zM301 729h-19l58 75h27z" />
    <glyph glyph-name="acircumflex" unicode="&#xe2;" 
d="M293 689l-170 -439h341zM566 0l-96 235h-354l-95 -235h-17l281 710h17l281 -710h-17zM238 727h-16l58 72h27l58 -72h-16l-55 60z" />
    <glyph glyph-name="atilde" unicode="&#xe3;" 
d="M293 689l-170 -439h341zM566 0l-96 235h-354l-95 -235h-17l281 710h17l281 -710h-17zM218 734l-12 3c4 18 14 33 30 39c24 10 50 -2 67 -20c11 -12 28 -16 43 -11c12 5 22 15 25 29l11 -3c-4 -18 -15 -33 -32 -39c-19 -8 -42 -2 -57 14s-37 24 -54 17
c-10 -4 -18 -14 -21 -29z" />
    <glyph glyph-name="adieresis" unicode="&#xe4;" 
d="M293 689l-170 -439h341zM566 0l-96 235h-354l-95 -235h-17l281 710h17l281 -710h-17zM232 784c12 0 20 -8 20 -20c0 -9 -8 -18 -20 -18c-10 0 -18 9 -18 18c0 12 8 20 18 20zM353 784c12 0 20 -8 20 -20c0 -9 -8 -18 -20 -18c-10 0 -18 9 -18 18c0 12 8 20 18 20z" />
    <glyph glyph-name="aring" unicode="&#xe5;" 
d="M293 689l-170 -439h341zM566 0l-96 235h-354l-95 -235h-17l281 710h17l281 -710h-17zM244 752c0 28 22 51 50 51s51 -23 51 -51c0 -29 -23 -51 -52 -51c-27 0 -49 23 -49 51zM262 752c0 -18 14 -33 32 -33s33 15 33 33s-15 33 -33 33s-32 -15 -32 -33z" />
    <glyph glyph-name="Ccedilla" unicode="&#xc7;" horiz-adv-x="699" 
d="M681 486h-17c-16 37 -39 70 -66 98c-59 61 -141 98 -231 98s-172 -37 -231 -98s-96 -144 -96 -235c0 -92 37 -175 96 -235c59 -61 141 -99 231 -99s172 38 231 99c27 28 50 60 66 97h17c-17 -41 -42 -78 -72 -109c-61 -63 -145 -102 -239 -103l-23 -50
c20 -2 39 -7 56 -17s32 -26 36 -46c1 -4 2 -8 2 -12c0 -5 -1 -9 -2 -13c-4 -20 -19 -35 -36 -45c-20 -12 -44 -18 -67 -18c-14 0 -29 3 -43 8c-24 9 -46 26 -51 51l14 3c1 -3 2 -7 4 -10c12 -25 50 -37 76 -37c21 0 42 4 60 15c13 8 26 20 29 36c1 3 1 6 1 10c0 3 0 6 -1 9
c-3 16 -16 28 -29 36c-24 14 -45 16 -69 19l28 61c-90 3 -171 41 -230 103c-61 63 -100 150 -100 247c0 96 39 183 100 246c62 64 147 103 242 103s180 -39 242 -103c30 -31 55 -68 72 -109z" />
    <glyph glyph-name="ccedilla" unicode="&#xe7;" horiz-adv-x="659" 
d="M354 -1l-23 -49c20 -2 39 -7 56 -17s32 -26 36 -46c1 -4 2 -8 2 -12c0 -5 -1 -9 -2 -13c-4 -20 -19 -35 -36 -45c-20 -12 -44 -18 -67 -18c-14 0 -29 3 -43 8c-24 9 -46 26 -51 51l14 3c1 -3 2 -7 4 -10c12 -25 50 -37 76 -37c21 0 42 4 60 15c13 8 26 20 29 36
c1 3 1 6 1 10c0 3 0 6 -1 9c-3 16 -16 28 -29 36c-24 14 -45 16 -69 19l27 60c-93 1 -177 40 -238 103s-100 150 -100 247c0 96 39 183 100 246c62 64 147 103 242 103s180 -39 242 -103c30 -31 55 -68 72 -109h-17c-16 37 -39 70 -66 98c-59 61 -141 98 -231 98
s-172 -37 -231 -98s-96 -144 -96 -235c0 -92 37 -175 96 -235c59 -61 141 -99 231 -99s172 38 231 99c27 28 50 60 66 97h17c-17 -41 -42 -78 -72 -109c-59 -61 -140 -100 -230 -103z" />
    <glyph glyph-name="OE" unicode="&#x152;" horiz-adv-x="829" 
d="M451 342v-329h372v-15h-379c-22 -4 -45 -6 -68 -6c-98 0 -188 31 -252 97c-64 65 -105 162 -105 261s41 198 105 263c64 66 154 95 252 95c21 0 41 -2 60 -5h385v-15h-370v-330h362v-16h-362zM376 692c-94 0 -179 -28 -241 -91c-61 -62 -100 -156 -100 -251
s39 -187 100 -249c62 -63 147 -93 241 -93c20 0 39 1 59 4v675c-19 3 -39 5 -59 5z" />
    <glyph glyph-name="oe" unicode="&#x153;" horiz-adv-x="829" 
d="M451 342v-329h372v-15h-379c-22 -4 -45 -6 -68 -6c-98 0 -188 31 -252 97c-64 65 -105 162 -105 261s41 198 105 263c64 66 154 95 252 95c21 0 41 -2 60 -5h385v-15h-370v-330h362v-16h-362zM376 692c-94 0 -179 -28 -241 -91c-61 -62 -100 -156 -100 -251
s39 -187 100 -249c62 -63 147 -93 241 -93c20 0 39 1 59 4v675c-19 3 -39 5 -59 5z" />
    <glyph glyph-name="yen" unicode="&#xa5;" horiz-adv-x="539" 
d="M153 225v15h108v47h-108v16h99l-248 396h19l246 -394l246 394h19l-248 -396h112v-16h-121v-47h121v-15h-121v-225h-16v225h-108z" />
    <glyph glyph-name="Scaron" unicode="&#x160;" horiz-adv-x="525" 
d="M320 812h16l-58 -72h-27l-58 72h16l55 -60zM471 545l-1 8c-6 29 -18 54 -38 76c-43 46 -112 65 -175 64c-66 -1 -141 -25 -183 -80c-25 -31 -34 -68 -31 -107c18 -245 410 -53 458 -277c32 -148 -108 -236 -241 -236c-102 0 -226 58 -238 171l-1 7l16 2l1 -7
c11 -105 128 -158 223 -158c122 0 254 79 225 218c-45 208 -440 18 -458 279c-4 42 7 83 33 117c102 132 390 115 424 -66l1 -8z" />
    <glyph glyph-name="scaron" unicode="&#x161;" horiz-adv-x="527" 
d="M320 812h16l-58 -72h-27l-58 72h16l55 -60zM471 545l-1 8c-6 29 -18 54 -38 76c-43 46 -112 65 -175 64c-66 -1 -141 -25 -183 -80c-25 -31 -34 -68 -31 -107c18 -245 410 -53 458 -277c32 -148 -108 -236 -241 -236c-102 0 -226 58 -238 171l-1 7l16 2l1 -7
c11 -105 128 -158 223 -158c122 0 254 79 225 218c-45 208 -440 18 -458 279c-4 42 7 83 33 117c102 132 390 115 424 -66l1 -8z" />
    <glyph glyph-name="Zcaron" unicode="&#x17d;" horiz-adv-x="528" 
d="M333 812h16l-58 -72h-27l-58 72h16l55 -60zM20 683v16h494l11 -18l-507 -666h509v-15h-520l-9 14l508 669h-486z" />
    <glyph glyph-name="zcaron" unicode="&#x17e;" horiz-adv-x="528" 
d="M346 812h16l-58 -72h-27l-58 72h16l55 -60zM20 683v16h494l11 -18l-507 -666h509v-15h-520l-9 14l508 669h-486z" />
    <glyph glyph-name="Egrave" unicode="&#xc8;" horiz-adv-x="440" 
d="M63 15v327h362v16h-362v326h370v15h-386v-699h2h386v15h-372zM271 736h-19l-66 75h27z" />
    <glyph glyph-name="Eacute" unicode="&#xc9;" horiz-adv-x="440" 
d="M63 342v-327h372v-15h-386h-2v699h386v-15h-370v-326h362v-16h-362zM237 734h-19l58 75h27z" />
    <glyph glyph-name="Ecircumflex" unicode="&#xca;" horiz-adv-x="440" 
d="M63 342v-327h372v-15h-386h-2v699h386v-15h-370v-326h362v-16h-362zM196 731h-16l58 72h27l58 -72h-16l-55 60z" />
    <glyph glyph-name="Edieresis" unicode="&#xcb;" horiz-adv-x="440" 
d="M63 15v327h362v16h-362v326h370v15h-386v-699h2h386v15h-372zM187 782c12 0 20 -8 20 -20c0 -9 -8 -18 -20 -18c-10 0 -18 9 -18 18c0 12 8 20 18 20zM308 782c12 0 20 -8 20 -20c0 -9 -8 -18 -20 -18c-10 0 -18 9 -18 18c0 12 8 20 18 20z" />
    <glyph glyph-name="Igrave" unicode="&#xcc;" horiz-adv-x="341" 
d="M327 685v14h-313v-14h149v-670h-149v-15h313v15h-149v670h149zM182 736h-19l-66 75h27z" />
    <glyph glyph-name="Iacute" unicode="&#xcd;" horiz-adv-x="341" 
d="M327 699v-14h-149v-670h149v-15h-313v15h149v670h-149v14h313zM179 735h-19l58 75h27z" />
    <glyph glyph-name="Icircumflex" unicode="&#xce;" horiz-adv-x="341" 
d="M327 699v-14h-149v-670h149v-15h-313v15h149v670h-149v14h313zM115 733h-16l58 72h27l58 -72h-16l-55 60z" />
    <glyph glyph-name="Idieresis" unicode="&#xcf;" horiz-adv-x="341" 
d="M327 685v14h-313v-14h149v-670h-149v-15h313v15h-149v670h149zM110 784c12 0 20 -8 20 -20c0 -9 -8 -18 -20 -18c-10 0 -18 9 -18 18c0 12 8 20 18 20zM231 784c12 0 20 -8 20 -20c0 -9 -8 -18 -20 -18c-10 0 -18 9 -18 18c0 12 8 20 18 20z" />
    <glyph glyph-name="Ntilde" unicode="&#xd1;" 
d="M63 0h-16v701l14 -1l465 -672v672h15v-700h-16l-462 668v-668zM226 742l-12 3c4 18 14 33 30 39c24 10 50 -2 67 -20c11 -12 28 -16 43 -11c12 5 22 15 25 29l11 -3c-4 -18 -15 -33 -32 -39c-19 -8 -42 -2 -57 14s-37 24 -54 17c-10 -4 -18 -14 -21 -29z" />
    <glyph glyph-name="Ograve" unicode="&#xd2;" horiz-adv-x="752" 
d="M717 350c0 -95 -38 -180 -99 -242c-62 -63 -148 -102 -242 -102s-179 39 -241 102c-61 62 -100 147 -100 242s39 180 100 242c62 63 147 102 241 102s180 -39 242 -102c61 -62 99 -147 99 -242zM19 350c0 -99 41 -189 105 -254c64 -66 154 -106 252 -106
c99 0 188 40 253 106c64 65 105 155 105 254s-41 189 -105 254c-65 66 -154 106 -253 106c-98 0 -188 -40 -252 -106c-64 -65 -105 -155 -105 -254zM390 743h-19l-66 75h27z" />
    <glyph glyph-name="Oacute" unicode="&#xd3;" horiz-adv-x="752" 
d="M717 350c0 95 -38 180 -99 242c-62 63 -148 102 -242 102s-179 -39 -241 -102c-61 -62 -100 -147 -100 -242s39 -180 100 -242c62 -63 147 -102 241 -102s180 39 242 102c61 62 99 147 99 242zM19 350c0 99 41 189 105 254c64 66 154 106 252 106c99 0 188 -40 253 -106
c64 -65 105 -155 105 -254s-41 -189 -105 -254c-65 -66 -154 -106 -253 -106c-98 0 -188 40 -252 106c-64 65 -105 155 -105 254zM391 744h-19l58 75h27z" />
    <glyph glyph-name="Ocircumflex" unicode="&#xd4;" horiz-adv-x="752" 
d="M717 350c0 95 -38 180 -99 242c-62 63 -148 102 -242 102s-179 -39 -241 -102c-61 -62 -100 -147 -100 -242s39 -180 100 -242c62 -63 147 -102 241 -102s180 39 242 102c61 62 99 147 99 242zM19 350c0 99 41 189 105 254c64 66 154 106 252 106c99 0 188 -40 253 -106
c64 -65 105 -155 105 -254s-41 -189 -105 -254c-65 -66 -154 -106 -253 -106c-98 0 -188 40 -252 106c-64 65 -105 155 -105 254zM321 738h-16l58 72h27l58 -72h-16l-55 60z" />
    <glyph glyph-name="Otilde" unicode="&#xd5;" horiz-adv-x="752" 
d="M717 350c0 95 -38 180 -99 242c-62 63 -148 102 -242 102s-179 -39 -241 -102c-61 -62 -100 -147 -100 -242s39 -180 100 -242c62 -63 147 -102 241 -102s180 39 242 102c61 62 99 147 99 242zM19 350c0 99 41 189 105 254c64 66 154 106 252 106c99 0 188 -40 253 -106
c64 -65 105 -155 105 -254s-41 -189 -105 -254c-65 -66 -154 -106 -253 -106c-98 0 -188 40 -252 106c-64 65 -105 155 -105 254zM304 747l-12 3c4 18 14 33 30 39c24 10 50 -2 67 -20c11 -12 28 -16 43 -11c12 5 22 15 25 29l11 -3c-4 -18 -15 -33 -32 -39
c-19 -8 -42 -2 -57 14s-37 24 -54 17c-10 -4 -18 -14 -21 -29z" />
    <glyph glyph-name="Odieresis" unicode="&#xd6;" horiz-adv-x="752" 
d="M717 350c0 -95 -38 -180 -99 -242c-62 -63 -148 -102 -242 -102s-179 39 -241 102c-61 62 -100 147 -100 242s39 180 100 242c62 63 147 102 241 102s180 -39 242 -102c61 -62 99 -147 99 -242zM19 350c0 -99 41 -189 105 -254c64 -66 154 -106 252 -106
c99 0 188 40 253 106c64 65 105 155 105 254s-41 189 -105 254c-65 66 -154 106 -253 106c-98 0 -188 -40 -252 -106c-64 -65 -105 -155 -105 -254zM314 788c12 0 20 -8 20 -20c0 -9 -8 -18 -20 -18c-10 0 -18 9 -18 18c0 12 8 20 18 20zM435 788c12 0 20 -8 20 -20
c0 -9 -8 -18 -20 -18c-10 0 -18 9 -18 18c0 12 8 20 18 20z" />
    <glyph glyph-name="Oslash" unicode="&#xd8;" horiz-adv-x="752" 
d="M19 350c0 99 41 189 105 254c64 66 154 106 252 106c68 0 132 -19 186 -53l47 74h20l-53 -83c19 -13 37 -28 53 -44c64 -65 105 -155 105 -254s-41 -189 -105 -254c-65 -66 -154 -106 -253 -106c-68 0 -133 19 -187 53l-50 -78h-19l55 87c-18 13 -36 28 -51 44
c-64 65 -105 155 -105 254zM717 350c0 95 -38 180 -99 242c-16 15 -33 30 -51 42l-369 -577c52 -33 113 -51 178 -51c94 0 180 39 242 102c61 62 99 147 99 242zM376 694c-94 0 -179 -39 -241 -102c-61 -62 -100 -147 -100 -242s39 -180 100 -242c15 -16 31 -30 49 -42
l369 578c-52 32 -113 50 -177 50z" />
    <glyph glyph-name="Ugrave" unicode="&#xd9;" horiz-adv-x="582" 
d="M291 -8c115 0 245 68 245 197v510h-16v-509c0 -122 -122 -182 -229 -182s-229 60 -229 181v510h-16v-509c0 -130 129 -198 245 -198zM324 735h-19l-66 75h27z" />
    <glyph glyph-name="Uacute" unicode="&#xda;" horiz-adv-x="582" 
d="M291 -8c-116 0 -245 68 -245 198v509h16v-510c0 -121 122 -181 229 -181s229 60 229 182v509h16v-510c0 -129 -130 -197 -245 -197zM295 735h-19l58 75h27z" />
    <glyph glyph-name="Ucircumflex" unicode="&#xdb;" horiz-adv-x="582" 
d="M291 -8c-116 0 -245 68 -245 198v509h16v-510c0 -121 122 -181 229 -181s229 60 229 182v509h16v-510c0 -129 -130 -197 -245 -197zM237 733h-16l58 72h27l58 -72h-16l-55 60z" />
    <glyph glyph-name="Udieresis" unicode="&#xdc;" horiz-adv-x="582" 
d="M291 -8c115 0 245 68 245 197v510h-16v-509c0 -122 -122 -182 -229 -182s-229 60 -229 181v510h-16v-509c0 -130 129 -198 245 -198zM240 784c12 0 20 -8 20 -20c0 -9 -8 -18 -20 -18c-10 0 -18 9 -18 18c0 12 8 20 18 20zM361 784c12 0 20 -8 20 -20
c0 -9 -8 -18 -20 -18c-10 0 -18 9 -18 18c0 12 8 20 18 20z" />
    <glyph glyph-name="egrave" unicode="&#xe8;" horiz-adv-x="440" 
d="M63 15v327h362v16h-362v326h370v15h-386v-699h2h386v15h-372zM266 737h-19l-66 75h27z" />
    <glyph glyph-name="eacute" unicode="&#xe9;" horiz-adv-x="440" 
d="M63 342v-327h372v-15h-386h-2v699h386v-15h-370v-326h362v-16h-362zM245 735h-19l58 75h27z" />
    <glyph glyph-name="ecircumflex" unicode="&#xea;" horiz-adv-x="440" 
d="M63 342v-327h372v-15h-386h-2v699h386v-15h-370v-326h362v-16h-362zM198 733h-16l58 72h27l58 -72h-16l-55 60z" />
    <glyph glyph-name="edieresis" unicode="&#xeb;" horiz-adv-x="440" 
d="M63 15v327h362v16h-362v326h370v15h-386v-699h2h386v15h-372zM192 783c12 0 20 -8 20 -20c0 -9 -8 -18 -20 -18c-10 0 -18 9 -18 18c0 12 8 20 18 20zM313 783c12 0 20 -8 20 -20c0 -9 -8 -18 -20 -18c-10 0 -18 9 -18 18c0 12 8 20 18 20z" />
    <glyph glyph-name="igrave" unicode="&#xec;" horiz-adv-x="341" 
d="M327 685v14h-313v-14h149v-670h-149v-15h313v15h-149v670h149zM184 735h-19l-66 75h27z" />
    <glyph glyph-name="iacute" unicode="&#xed;" horiz-adv-x="341" 
d="M327 699v-14h-149v-670h149v-15h-313v15h149v670h-149v14h313zM179 736h-19l58 75h27z" />
    <glyph glyph-name="icircumflex" unicode="&#xee;" horiz-adv-x="341" 
d="M327 699v-14h-149v-670h149v-15h-313v15h149v670h-149v14h313zM116 734h-16l58 72h27l58 -72h-16l-55 60z" />
    <glyph glyph-name="idieresis" unicode="&#xef;" horiz-adv-x="341" 
d="M327 685v14h-313v-14h149v-670h-149v-15h313v15h-149v670h149zM110 784c12 0 20 -8 20 -20c0 -9 -8 -18 -20 -18c-10 0 -18 9 -18 18c0 12 8 20 18 20zM231 784c12 0 20 -8 20 -20c0 -9 -8 -18 -20 -18c-10 0 -18 9 -18 18c0 12 8 20 18 20z" />
    <glyph glyph-name="ntilde" unicode="&#xf1;" 
d="M63 0h-16v701l14 -1l465 -672v672h15v-700h-16l-462 668v-668zM224 744l-12 3c4 18 14 33 30 39c24 10 50 -2 67 -20c11 -12 28 -16 43 -11c12 5 22 15 25 29l11 -3c-4 -18 -15 -33 -32 -39c-19 -8 -42 -2 -57 14s-37 24 -54 17c-10 -4 -18 -14 -21 -29z" />
    <glyph glyph-name="ograve" unicode="&#xf2;" horiz-adv-x="752" 
d="M717 350c0 -95 -38 -180 -99 -242c-62 -63 -148 -102 -242 -102s-179 39 -241 102c-61 62 -100 147 -100 242s39 180 100 242c62 63 147 102 241 102s180 -39 242 -102c61 -62 99 -147 99 -242zM19 350c0 -99 41 -189 105 -254c64 -66 154 -106 252 -106
c99 0 188 40 253 106c64 65 105 155 105 254s-41 189 -105 254c-65 66 -154 106 -253 106c-98 0 -188 -40 -252 -106c-64 -65 -105 -155 -105 -254zM403 747h-19l-66 75h27z" />
    <glyph glyph-name="oacute" unicode="&#xf3;" horiz-adv-x="752" 
d="M717 350c0 95 -38 180 -99 242c-62 63 -148 102 -242 102s-179 -39 -241 -102c-61 -62 -100 -147 -100 -242s39 -180 100 -242c62 -63 147 -102 241 -102s180 39 242 102c61 62 99 147 99 242zM19 350c0 99 41 189 105 254c64 66 154 106 252 106c99 0 188 -40 253 -106
c64 -65 105 -155 105 -254s-41 -189 -105 -254c-65 -66 -154 -106 -253 -106c-98 0 -188 40 -252 106c-64 65 -105 155 -105 254zM396 745h-19l58 75h27z" />
    <glyph glyph-name="ocircumflex" unicode="&#xf4;" horiz-adv-x="752" 
d="M717 350c0 95 -38 180 -99 242c-62 63 -148 102 -242 102s-179 -39 -241 -102c-61 -62 -100 -147 -100 -242s39 -180 100 -242c62 -63 147 -102 241 -102s180 39 242 102c61 62 99 147 99 242zM19 350c0 99 41 189 105 254c64 66 154 106 252 106c99 0 188 -40 253 -106
c64 -65 105 -155 105 -254s-41 -189 -105 -254c-65 -66 -154 -106 -253 -106c-98 0 -188 40 -252 106c-64 65 -105 155 -105 254zM331 744h-16l58 72h27l58 -72h-16l-55 60z" />
    <glyph glyph-name="otilde" unicode="&#xf5;" horiz-adv-x="752" 
d="M717 350c0 95 -38 180 -99 242c-62 63 -148 102 -242 102s-179 -39 -241 -102c-61 -62 -100 -147 -100 -242s39 -180 100 -242c62 -63 147 -102 241 -102s180 39 242 102c61 62 99 147 99 242zM19 350c0 99 41 189 105 254c64 66 154 106 252 106c99 0 188 -40 253 -106
c64 -65 105 -155 105 -254s-41 -189 -105 -254c-65 -66 -154 -106 -253 -106c-98 0 -188 40 -252 106c-64 65 -105 155 -105 254zM317 750l-12 3c4 18 14 33 30 39c24 10 50 -2 67 -20c11 -12 28 -16 43 -11c12 5 22 15 25 29l11 -3c-4 -18 -15 -33 -32 -39
c-19 -8 -42 -2 -57 14s-37 24 -54 17c-10 -4 -18 -14 -21 -29z" />
    <glyph glyph-name="odieresis" unicode="&#xf6;" horiz-adv-x="752" 
d="M717 350c0 -95 -38 -180 -99 -242c-62 -63 -148 -102 -242 -102s-179 39 -241 102c-61 62 -100 147 -100 242s39 180 100 242c62 63 147 102 241 102s180 -39 242 -102c61 -62 99 -147 99 -242zM19 350c0 -99 41 -189 105 -254c64 -66 154 -106 252 -106
c99 0 188 40 253 106c64 65 105 155 105 254s-41 189 -105 254c-65 66 -154 106 -253 106c-98 0 -188 -40 -252 -106c-64 -65 -105 -155 -105 -254zM324 794c12 0 20 -8 20 -20c0 -9 -8 -18 -20 -18c-10 0 -18 9 -18 18c0 12 8 20 18 20zM445 794c12 0 20 -8 20 -20
c0 -9 -8 -18 -20 -18c-10 0 -18 9 -18 18c0 12 8 20 18 20z" />
    <glyph glyph-name="oslash" unicode="&#xf8;" horiz-adv-x="752" 
d="M19 350c0 99 41 189 105 254c64 66 154 106 252 106c68 0 132 -19 186 -53l47 74h20l-53 -83c19 -13 37 -28 53 -44c64 -65 105 -155 105 -254s-41 -189 -105 -254c-65 -66 -154 -106 -253 -106c-68 0 -133 19 -187 53l-50 -78h-19l55 87c-18 13 -36 28 -51 44
c-64 65 -105 155 -105 254zM717 350c0 95 -38 180 -99 242c-16 15 -33 30 -51 42l-369 -577c52 -33 113 -51 178 -51c94 0 180 39 242 102c61 62 99 147 99 242zM376 694c-94 0 -179 -39 -241 -102c-61 -62 -100 -147 -100 -242s39 -180 100 -242c15 -16 31 -30 49 -42
l369 578c-52 32 -113 50 -177 50z" />
    <glyph glyph-name="ugrave" unicode="&#xf9;" horiz-adv-x="582" 
d="M291 -8c115 0 245 68 245 197v510h-16v-509c0 -122 -122 -182 -229 -182s-229 60 -229 181v510h-16v-509c0 -130 129 -198 245 -198zM315 736h-19l-66 75h27z" />
    <glyph glyph-name="uacute" unicode="&#xfa;" horiz-adv-x="582" 
d="M291 -8c-116 0 -245 68 -245 198v509h16v-510c0 -121 122 -181 229 -181s229 60 229 182v509h16v-510c0 -129 -130 -197 -245 -197zM300 734h-19l58 75h27z" />
    <glyph glyph-name="ucircumflex" unicode="&#xfb;" horiz-adv-x="582" 
d="M291 -8c-116 0 -245 68 -245 198v509h16v-510c0 -121 122 -181 229 -181s229 60 229 182v509h16v-510c0 -129 -130 -197 -245 -197zM235 740h-16l58 72h27l58 -72h-16l-55 60z" />
    <glyph glyph-name="udieresis" unicode="&#xfc;" horiz-adv-x="582" 
d="M291 -8c115 0 245 68 245 197v510h-16v-509c0 -122 -122 -182 -229 -182s-229 60 -229 181v510h-16v-509c0 -130 129 -198 245 -198zM231 784c12 0 20 -8 20 -20c0 -9 -8 -18 -20 -18c-10 0 -18 9 -18 18c0 12 8 20 18 20zM352 784c12 0 20 -8 20 -20
c0 -9 -8 -18 -20 -18c-10 0 -18 9 -18 18c0 12 8 20 18 20z" />
    </font>
</defs>
</svg>
